<?xml version="1.0" encoding="UTF-8" standalone="no"?>
<svg
   xmlns:dc="http://purl.org/dc/elements/1.1/"
   xmlns:cc="http://creativecommons.org/ns#"
   xmlns:rdf="http://www.w3.org/1999/02/22-rdf-syntax-ns#"
   xmlns:svg="http://www.w3.org/2000/svg"
   xmlns="http://www.w3.org/2000/svg"
   xmlns:sodipodi="http://sodipodi.sourceforge.net/DTD/sodipodi-0.dtd"
   xmlns:inkscape="http://www.inkscape.org/namespaces/inkscape"
   version="1.1"
   id="svg2"
   viewBox="0 0 633.28406 267.43079"
   height="267.43079"
   width="633.28406"
   inkscape:version="0.48.4 r9939"
   sodipodi:docname="nd_wave_inv.svg">
  <sodipodi:namedview
     pagecolor="#ffffff"
     bordercolor="#666666"
     borderopacity="1"
     objecttolerance="10"
     gridtolerance="10"
     guidetolerance="10"
     inkscape:pageopacity="0"
     inkscape:pageshadow="2"
     inkscape:window-width="1467"
     inkscape:window-height="887"
     id="namedview28"
     showgrid="false"
     fit-margin-top="0"
     fit-margin-left="0"
     fit-margin-right="0"
     fit-margin-bottom="0"
     inkscape:zoom="1.2685914"
     inkscape:cx="356.00711"
     inkscape:cy="75.020572"
     inkscape:window-x="10"
     inkscape:window-y="34"
     inkscape:window-maximized="0"
     inkscape:current-layer="svg2" />
  <defs
     id="defs4">
    <pattern
       id="EMFhbasepattern"
       patternUnits="userSpaceOnUse"
       width="6"
       height="6"
       x="0"
       y="0" />
  </defs>
  <metadata
     id="metadata7">
    <rdf:RDF>
      <cc:Work
         rdf:about="">
        <dc:format>image/svg+xml</dc:format>
        <dc:type
           rdf:resource="http://purl.org/dc/dcmitype/StillImage" />
        <dc:title />
      </cc:Work>
    </rdf:RDF>
  </metadata>
  <g
     id="layer1"
     transform="translate(-47.511923,-54.535008)">
    <g
       id="g3344"
       transform="matrix(1.25,0,0,-1.25,0,1052.3623)" />
    <g
       id="g3355"
       transform="matrix(1.25,0,0,-1.25,0,1052.3623)" />
    <path
       style="fill:#c30a17;fill-opacity:1;fill-rule:evenodd;stroke:none"
       d="m 303.01205,241.43882 c 22.86669,0 40.76128,17.89439 40.76128,40.7599 0,21.87272 -17.89459,39.76709 -40.76128,39.76709 -21.87125,0 -39.76585,-17.89437 -39.76585,-39.76709 0,-22.86551 17.8946,-40.7599 39.76585,-40.7599 z"
       id="path3363"
       inkscape:connector-curvature="0" />
    <path
       style="fill:#dddddf;fill-opacity:1;fill-rule:evenodd;stroke:none"
       d="m 47.511918,312.02465 18.889169,0 0,-55.67345 -18.889169,0 z"
       id="path3365"
       inkscape:connector-curvature="0" />
    <path
       style="fill:#dddddf;fill-opacity:1;fill-rule:evenodd;stroke:none"
       d="m 232.4266,312.02465 18.88917,0 0,-92.45734 -18.88917,0 z"
       id="path3367"
       inkscape:connector-curvature="0" />
    <path
       style="fill:#dddddf;fill-opacity:1;fill-rule:evenodd;stroke:none"
       d="m 355.70375,312.02465 16.90043,0 0,-92.45734 -16.90043,0 z"
       id="path3369"
       inkscape:connector-curvature="0" />
    <path
       style="fill:#dddddf;fill-opacity:1;fill-rule:evenodd;stroke:none"
       d="m 384.53419,312.02465 18.88959,0 0,-111.34689 -18.88959,0 z"
       id="path3371"
       inkscape:connector-curvature="0" />
    <path
       style="fill:#dddddf;fill-opacity:1;fill-rule:evenodd;stroke:none"
       d="m 415.35295,312.02465 18.88959,0 0,-149.1255 -18.88959,0 z"
       id="path3373"
       inkscape:connector-curvature="0" />
    <path
       style="fill:#dddddf;fill-opacity:1;fill-rule:evenodd;stroke:none"
       d="m 446.17297,312.02465 18.88959,0 0,-181.93289 -18.88959,0 z"
       id="path3375"
       inkscape:connector-curvature="0" />
    <path
       style="fill:#dddddf;fill-opacity:1;fill-rule:evenodd;stroke:none"
       d="m 476.99173,312.02465 18.88959,0 0,-212.752122 -18.88959,0 z"
       id="path3377"
       inkscape:connector-curvature="0" />
    <path
       style="fill:#dddddf;fill-opacity:1;fill-rule:evenodd;stroke:none"
       d="m 507.81175,312.02465 18.88835,0 0,-238.600462 -18.88835,0 z"
       id="path3379"
       inkscape:connector-curvature="0" />
    <path
       style="fill:#dddddf;fill-opacity:1;fill-rule:evenodd;stroke:none"
       d="m 538.63051,312.02465 18.88918,0 0,-257.489642 -18.88918,0 z"
       id="path3381"
       inkscape:connector-curvature="0" />
    <path
       style="fill:#dddddf;fill-opacity:1;fill-rule:evenodd;stroke:none"
       d="m 569.44887,312.02465 18.88959,0 0,-212.752122 -18.88959,0 z"
       id="path3383"
       inkscape:connector-curvature="0" />
    <path
       style="fill:#dddddf;fill-opacity:1;fill-rule:evenodd;stroke:none"
       d="m 600.26889,312.02465 18.88833,0 0,-168.01455 -18.88833,0 z"
       id="path3385"
       inkscape:connector-curvature="0" />
    <path
       style="fill:#dddddf;fill-opacity:1;fill-rule:evenodd;stroke:none"
       d="m 631.08765,312.02465 18.88959,0 0,-117.31206 -18.88959,0 z"
       id="path3387"
       inkscape:connector-curvature="0" />
    <path
       style="fill:#dddddf;fill-opacity:1;fill-rule:evenodd;stroke:none"
       d="m 661.90767,312.02465 18.88833,0 0,-73.569 -18.88833,0 z"
       id="path3389"
       inkscape:connector-curvature="0" />
    <path
       style="fill:#dddddf;fill-opacity:1;fill-rule:evenodd;stroke:none"
       d="m 78.331097,312.02465 18.88917,0 0,-111.34689 -18.88917,0 z"
       id="path3391"
       inkscape:connector-curvature="0" />
    <path
       style="fill:#dddddf;fill-opacity:1;fill-rule:evenodd;stroke:none"
       d="m 109.15028,312.02465 18.88918,0 0,-149.1255 -18.88918,0 z"
       id="path3393"
       inkscape:connector-curvature="0" />
    <path
       style="fill:#dddddf;fill-opacity:1;fill-rule:evenodd;stroke:none"
       d="m 139.96946,312.02465 16.90084,0 0,-181.93289 -16.90084,0 z"
       id="path3395"
       inkscape:connector-curvature="0" />
    <path
       style="fill:#dddddf;fill-opacity:1;fill-rule:evenodd;stroke:none"
       d="m 168.7999,312.02465 18.8896,0 0,-213.746322 -18.8896,0 z"
       id="path3397"
       inkscape:connector-curvature="0" />
    <path
       style="fill:#dddddf;fill-opacity:1;fill-rule:evenodd;stroke:none"
       d="m 199.61951,312.02465 20.87792,0 0,-168.01455 -20.87792,0 z"
       id="path3399"
       inkscape:connector-curvature="0" />
  </g>
</svg>
